<mxfile host="app.diagrams.net" modified="2023-05-07T02:27:21.944Z" agent="Mozilla/5.0 (Windows NT 10.0; Win64; x64) AppleWebKit/537.36 (KHTML, like Gecko) Chrome/112.0.0.0 Safari/537.36" etag="cgYSPcBq5UKGjmkzL0fg" version="21.1.8" type="device">
  <diagram name="PÃ¡gina-1" id="JndqAqiM0AyD8pwBl6sS">
    <mxGraphModel dx="766" dy="336" grid="0" gridSize="10" guides="1" tooltips="1" connect="1" arrows="1" fold="1" page="0" pageScale="1" pageWidth="827" pageHeight="1169" math="0" shadow="0">
      <root>
        <mxCell id="0" />
        <mxCell id="1" parent="0" />
        <mxCell id="-p354xHayWiYditl81SA-3" value="" style="edgeStyle=none;curved=1;rounded=0;orthogonalLoop=1;jettySize=auto;html=1;fontSize=12;startSize=8;endSize=8;" edge="1" parent="1" source="-p354xHayWiYditl81SA-1" target="-p354xHayWiYditl81SA-2">
          <mxGeometry relative="1" as="geometry" />
        </mxCell>
        <mxCell id="-p354xHayWiYditl81SA-1" value="" style="rounded=0;whiteSpace=wrap;html=1;fontSize=16;" vertex="1" parent="1">
          <mxGeometry x="16" y="175" width="120" height="60" as="geometry" />
        </mxCell>
        <mxCell id="-p354xHayWiYditl81SA-2" value="" style="rounded=0;whiteSpace=wrap;html=1;fontSize=16;" vertex="1" parent="1">
          <mxGeometry x="256" y="175" width="120" height="60" as="geometry" />
        </mxCell>
      </root>
    </mxGraphModel>
  </diagram>
</mxfile>
